<svg xmlns="http://www.w3.org/2000/svg" width="418" height="71" viewBox="0 0 418 71" fill="none"><path d="M12.3281 16.1641C12.5977 16.1523 12.832 16.0469 13.0312 15.8477C13.5703 15.3086 13.7109 14.4531 13.4648 13.293C13.2188 12.1328 12.9141 11.3125 12.5391 10.8438C12.1523 10.375 11.7188 10.1172 11.2148 10.0586C8.21484 9.74219 5.70703 10.3984 3.69141 12.0508C1.67578 13.7031 0.515625 15.9883 0.210938 18.918C0.0351562 20.7695 0.375 22.4219 1.25391 23.8633C2.13281 25.3047 3.38672 26.4062 5.03906 27.1445C6.25781 27.6953 7.64062 27.9883 9.17578 28C10.7109 28.0117 12.1289 27.7773 13.4062 27.3086C13.8047 27.2148 14.0977 26.9219 14.2969 26.418C14.543 25.8086 14.5898 25.0352 14.4492 24.0977C14.3203 23.1602 14.0625 22.4102 13.6992 21.8477C13.4648 21.5078 13.207 21.2617 12.9141 21.1211C12.5977 20.9805 12.2812 20.9688 11.9531 21.0742C11.3672 21.2031 10.6758 21.2852 9.86719 21.3086C9.05859 21.3203 8.41406 21.1445 7.93359 20.7578C7.62891 20.5234 7.42969 20.1953 7.34766 19.7852C7.17188 18.8828 7.40625 18.1211 8.07422 17.5117C8.74219 16.8906 9.49219 16.5039 10.3125 16.3398C10.957 16.2344 11.6367 16.1992 12.3281 16.1641ZM33.293 20.3008C33.7383 17.5586 33.1523 15.2148 31.5469 13.2695L31.5234 13.2461C32.0742 12.9062 32.4844 12.4727 32.7773 11.957C33.2109 11.1953 33.4805 10.2695 33.5977 9.20312C33.5977 8.37109 32.7539 8.11328 31.1016 8.03125C29.4609 7.94922 28.5352 8.21875 28.5703 8.79297C28.5703 9.13281 28.4297 9.49609 28.1484 9.85938C27.9258 10.1523 27.5977 10.3398 27.1875 10.4219C26.4492 10.1992 25.6641 10.0586 24.8086 9.97656C22.4062 9.76562 20.3086 10.4219 18.4922 11.957C16.6875 13.4805 15.5977 15.3672 15.2344 17.6172C14.8477 20.043 15.375 22.2461 16.8281 24.2383C18.2812 26.2305 20.2734 27.4375 22.8047 27.8594C25.4297 28.293 27.7266 27.7656 29.707 26.2539C31.6875 24.7422 32.8828 22.7617 33.293 20.3008ZM26.5664 19.3047C26.4844 19.8086 26.2617 20.2539 25.8984 20.6172C25.5352 20.9805 25.0898 21.1914 24.5508 21.25C23.7656 21.3438 23.1094 21.1094 22.582 20.5586C22.0547 19.9961 21.8438 19.3516 21.9727 18.625C22.0664 18.0273 22.3594 17.5234 22.8633 17.1367C23.3672 16.7383 23.9414 16.5977 24.5977 16.7031C25.2891 16.8203 25.8164 17.1133 26.1797 17.5938C26.543 18.0625 26.6719 18.6367 26.5664 19.3047ZM51.4453 16.1641C51.7148 16.1523 51.9492 16.0469 52.1484 15.8477C52.6875 15.3086 52.8281 14.4531 52.582 13.293C52.3359 12.1328 52.0312 11.3125 51.6562 10.8438C51.2695 10.375 50.8359 10.1172 50.332 10.0586C47.332 9.74219 44.8242 10.3984 42.8086 12.0508C40.793 13.7031 39.6328 15.9883 39.3281 18.918C39.1523 20.7695 39.4922 22.4219 40.3711 23.8633C41.25 25.3047 42.5039 26.4062 44.1562 27.1445C45.375 27.6953 46.7578 27.9883 48.293 28C49.8281 28.0117 51.2461 27.7773 52.5234 27.3086C52.9219 27.2148 53.2148 26.9219 53.4141 26.418C53.6602 25.8086 53.707 25.0352 53.5664 24.0977C53.4375 23.1602 53.1797 22.4102 52.8164 21.8477C52.582 21.5078 52.3242 21.2617 52.0312 21.1211C51.7148 20.9805 51.3984 20.9688 51.0703 21.0742C50.4844 21.2031 49.793 21.2852 48.9844 21.3086C48.1758 21.3203 47.5312 21.1445 47.0508 20.7578C46.7461 20.5234 46.5469 20.1953 46.4648 19.7852C46.2891 18.8828 46.5234 18.1211 47.1914 17.5117C47.8594 16.8906 48.6094 16.5039 49.4297 16.3398C50.0742 16.2344 50.7539 16.1992 51.4453 16.1641ZM61.3711 27.4141C61.4766 27.25 61.5703 26.8164 61.6523 26.1133C61.7344 25.4102 61.8164 24.543 61.875 23.5234C62.7305 23.418 63.6445 23.2891 64.5234 23.1133C64.6289 24.2383 64.7344 25.1992 64.8633 25.9844C64.9922 26.7695 65.1094 27.2383 65.2383 27.4023C65.4023 27.707 66.1406 27.8945 67.4648 27.9531C68.7891 28.0117 69.7266 27.9062 70.2773 27.6367C70.5117 27.5195 70.7109 26.7227 70.8867 25.2344C71.0625 23.7461 71.2031 22.082 71.2969 20.2305C71.4023 18.3672 71.4609 16.5859 71.4727 14.875C71.4961 13.1523 71.4727 12.0039 71.3906 11.4297C71.3203 10.9492 70.9102 10.5977 70.1484 10.3516C69.3984 10.1055 68.5781 9.96484 67.6992 9.94141C66.8203 9.91797 66.0117 10 65.2734 10.1992C64.5352 10.3867 64.1602 10.6797 64.1367 11.0781C64.043 12.3906 64.043 14.2422 64.1016 16.2461C63.375 16.2578 62.6836 16.2812 62.0156 16.3164C61.9805 14.3008 61.8984 12.4023 61.7578 11.0781C61.7109 10.6914 61.3125 10.3984 60.5742 10.2109C59.8359 10.0234 59.0156 9.94141 58.1367 9.97656C57.2578 10 56.4375 10.1406 55.6992 10.3867C54.9609 10.6328 54.5625 10.9961 54.5156 11.4766C54.4688 12.0508 54.4922 13.1992 54.5742 14.9219C54.668 16.6328 54.7969 18.4141 54.9727 20.2656C55.1484 22.1172 55.3594 23.793 55.5938 25.2812C55.8398 26.7695 56.0859 27.5664 56.332 27.6836C56.8945 27.9414 57.832 28.0352 59.1562 27.9766C60.4805 27.9062 61.2188 27.7188 61.3711 27.4141ZM74.7305 4.92578C74.9883 5.10156 75.9023 4.98438 77.4609 4.55078C79.0195 4.11719 80.1328 3.71875 80.8008 3.33203C81.0234 3.19141 81.1055 2.89844 80.7422 1.96094C80.5664 1.48047 80.4141 1.1875 80.2617 1.08203C80.1094 0.964844 79.8984 0.929688 79.6172 0.976562C79.207 1.02344 78.0586 1.45703 76.5 2.11328C74.9414 2.75781 74.0508 3.39062 74.1094 3.75391C74.1445 3.90625 74.2148 4.11719 74.332 4.38672C74.4609 4.65625 74.5898 4.84375 74.7305 4.92578ZM83.4492 7.63281C83.3203 7.5625 82.9922 7.375 82.4883 7.08203C81.9844 6.77734 81.4336 6.46094 80.8359 6.14453C80.2383 5.82812 79.6875 5.54688 79.1602 5.3125C78.6328 5.07812 78.3047 4.98438 78.1641 5.01953C77.9062 5.03125 77.2031 5.40625 76.043 6.12109C74.8945 6.83594 74.0508 7.39844 73.5234 7.83203C73.3477 7.99609 73.4531 8.32422 73.8516 8.82812C74.25 9.33203 74.6016 9.50781 74.918 9.35547C75.082 9.26172 75.5273 9.0625 76.2422 8.76953C76.9688 8.47656 77.6836 8.19531 78.3984 7.92578C79.1719 8.18359 79.957 8.45312 80.7656 8.74609C81.5742 9.02734 82.0664 9.21484 82.2656 9.29688C82.582 9.4375 82.8984 9.22656 83.2383 8.67578C83.5781 8.125 83.6484 7.77344 83.4492 7.63281ZM79.8398 21.0742C80.8359 21.0391 81.7383 20.9688 82.0547 20.875C82.2773 20.8398 82.4062 20.6172 82.4648 20.1836C82.5234 19.75 82.5234 19.293 82.4648 18.7891C82.418 18.2852 82.3242 17.8164 82.1953 17.3945C82.0664 16.9609 81.9375 16.7266 81.8086 16.6914C81.2578 16.5742 80.5312 16.5039 79.6523 16.4922C79.6406 16.3047 79.6172 16.0234 79.6172 15.8359C80.9648 15.7891 82.1484 15.7305 83.1562 15.6719C84.1758 15.6016 84.7266 15.4258 84.8086 15.1445C84.9844 14.5469 85.0547 13.6562 85.0195 12.4727C84.9961 11.2891 84.8789 10.6094 84.668 10.4336C84.4922 10.2578 83.8242 10.1406 82.6641 10.082C81.5039 10.0117 80.2383 9.98828 78.8672 10.0117C77.4961 10.0234 76.2305 10.082 75.0469 10.1641C73.8633 10.2461 73.1836 10.3516 72.9844 10.4688C72.7852 10.5859 72.6445 10.8789 72.5508 11.3477C72.457 11.8047 72.4102 12.3203 72.4102 12.8828C72.3633 13.9023 72.3516 15.2383 72.3633 16.8672C72.375 18.4961 72.4336 20.0898 72.5156 21.6602C72.5977 23.2188 72.7148 24.5898 72.8672 25.7617C73.0195 26.9219 73.2188 27.5547 73.4531 27.6484C73.8516 27.8242 74.707 27.9297 76.0195 27.9648C77.332 28 78.7031 28 80.1328 27.9414C81.5625 27.8828 82.8516 27.7656 84 27.6016C85.1484 27.4375 85.7578 27.2266 85.8398 26.9805C86.0156 26.3828 86.0508 25.4336 85.9453 24.1094C85.8516 22.7852 85.6992 22.0469 85.4883 21.8711C85.2891 21.6602 84.6445 21.5898 83.543 21.6484C82.4414 21.707 81.2109 21.7539 79.8398 21.7656V21.0742ZM101.93 15.9297C102.094 15.9531 102.164 16.0703 102.152 16.293C102.141 16.5156 102.305 16.6445 102.645 16.6914C102.891 16.7266 103.289 16.7266 103.84 16.6914C104.391 16.6562 104.953 16.5742 105.516 16.457C106.09 16.3281 106.582 16.1641 106.992 15.9648C107.402 15.7539 107.602 15.4961 107.566 15.1914C107.531 13.1875 106.828 11.8047 105.445 11.043C104.074 10.2812 102.539 9.92969 100.852 10.0117C98.2969 10.1406 96.1758 10.9727 94.5 12.4961C92.8242 14.0195 91.8398 16.1406 91.5352 18.8594C91.2656 21.3555 91.9336 23.4414 93.5625 25.1406C95.1914 26.8398 97.207 27.7773 99.6094 27.9648C100.969 28.0586 102.352 27.9414 103.758 27.6016C103.828 27.7188 103.898 27.7773 103.969 27.7891C104.449 27.9297 105.246 27.9883 106.371 27.9531C107.508 27.918 108.129 27.8242 108.258 27.6602C108.387 27.543 108.492 27.1445 108.551 26.4766C108.621 25.8086 108.656 25.0352 108.668 24.1562C108.68 23.2773 108.656 22.3984 108.609 21.4961C108.574 20.5938 108.516 19.8438 108.434 19.2578C108.387 18.9414 108.035 18.7422 107.379 18.6484C106.734 18.543 106.031 18.5312 105.27 18.6016C104.52 18.6719 103.84 18.8125 103.23 19.0234C102.621 19.2344 102.328 19.4922 102.363 19.7852C102.305 20.2305 102.234 20.6758 102.152 21.1211C102.07 21.5547 101.695 21.7773 101.016 21.7656C100.078 21.7188 99.3633 21.4492 98.8594 20.9688C98.3555 20.4766 98.0742 19.9258 97.9922 19.3047C97.9102 18.6836 98.0508 18.0625 98.3906 17.4648C98.7305 16.8672 99.2812 16.4219 100.043 16.1523C100.594 15.9648 101.215 15.8945 101.93 15.9297ZM117.27 27.4141C117.445 27.1797 117.598 26.4062 117.738 25.0938C117.879 23.7812 117.984 22.2695 118.055 20.5586C118.125 18.8477 118.148 17.1133 118.137 15.3555C118.125 13.5977 118.066 12.1562 117.938 11.0312C117.891 10.6328 117.457 10.3398 116.637 10.1523C115.828 9.96484 114.926 9.88281 113.941 9.91797C112.969 9.94141 112.066 10.082 111.234 10.3281C110.414 10.5742 109.98 10.9258 109.922 11.4062C109.852 11.9805 109.852 13.1406 109.934 14.8633C110.016 16.5859 110.133 18.3672 110.309 20.2305C110.484 22.0938 110.684 23.7695 110.93 25.2578C111.176 26.7461 111.434 27.5547 111.703 27.6719C112.312 27.9297 113.355 28.0352 114.82 27.9766C116.285 27.918 117.105 27.7305 117.27 27.4141ZM126.023 9.66016C126.281 9.83594 127.195 9.71875 128.754 9.28516C130.312 8.85156 131.426 8.45312 132.094 8.06641C132.316 7.92578 132.398 7.63281 132.035 6.69531C131.859 6.21484 131.707 5.92188 131.555 5.81641C131.402 5.69922 131.191 5.66406 130.91 5.71094C130.5 5.75781 129.352 6.19141 127.793 6.84766C126.234 7.49219 125.344 8.125 125.402 8.48828C125.438 8.64062 125.508 8.85156 125.625 9.12109C125.754 9.39062 125.883 9.57812 126.023 9.66016ZM130.793 11.0312C130.758 11.582 130.746 12.4375 130.781 13.5859C130.816 14.7344 130.781 15.8828 130.676 17.0195C130.57 18.1562 130.348 19.1289 129.996 19.9609C129.656 20.7812 129.082 21.1445 128.285 21.0508C127.547 20.9688 127.043 20.5234 126.75 19.6914C126.469 18.8594 126.305 17.8984 126.258 16.8086C126.223 15.7188 126.246 14.6172 126.328 13.5273C126.41 12.4258 126.469 11.5703 126.48 10.9609C126.48 10.75 126.188 10.5742 125.602 10.4453C125.027 10.3047 124.359 10.2109 123.609 10.1758C122.871 10.1406 122.145 10.1523 121.453 10.2227C120.762 10.293 120.305 10.4336 120.082 10.6445C119.824 10.9023 119.625 11.5234 119.496 12.4961C119.367 13.4688 119.297 14.5469 119.285 15.7305C119.273 16.9141 119.32 18.0859 119.414 19.2461C119.52 20.4062 119.684 21.2852 119.906 21.9062C120.586 23.8047 121.805 25.3281 123.574 26.4766C125.344 27.6133 127.242 28.1172 129.293 27.9766C130.922 27.8477 132.363 27.332 133.617 26.4297C134.883 25.5273 135.844 24.3555 136.5 22.9141C136.805 22.2461 137.039 21.332 137.203 20.1719C137.379 19.0117 137.484 17.8398 137.52 16.6328C137.566 15.4258 137.555 14.3125 137.484 13.293C137.426 12.2734 137.309 11.5469 137.145 11.1367C137.027 10.8555 136.629 10.6562 135.961 10.5273C135.293 10.3984 134.578 10.3398 133.816 10.3516C133.055 10.3516 132.363 10.4102 131.742 10.5391C131.121 10.6562 130.805 10.8203 130.793 11.0312ZM153.082 18.168C153.633 14.6289 152.238 12.1562 148.898 10.75C148.266 10.4805 147.387 10.293 146.25 10.1758C145.113 10.0469 143.988 10.0234 142.875 10.0938C141.762 10.1641 140.777 10.3398 139.922 10.6211C139.078 10.9023 138.633 11.3125 138.574 11.8398C138.516 12.4141 138.516 13.5391 138.551 15.2148C138.586 16.8906 138.668 18.625 138.797 20.4414C138.926 22.2578 139.102 23.8867 139.301 25.3398C139.512 26.7812 139.746 27.5664 140.016 27.6836C140.613 27.9414 141.621 28.0352 143.062 27.9766C144.504 27.918 145.301 27.7305 145.465 27.4258C145.699 27.1445 145.898 25.8086 146.039 24.0156C147.855 24.1797 149.414 23.6758 150.715 22.5156C152.016 21.3555 152.812 19.9023 153.082 18.168ZM148.043 16.7617C148.148 17.2891 148.055 17.7461 147.762 18.1562C147.48 18.5547 147.059 18.8008 146.484 18.8828C146.098 18.9531 145.816 18.918 145.629 18.7891C145.195 18.5078 144.949 17.8984 144.879 16.9609C144.809 16.0234 145.148 15.4844 145.898 15.3555C146.004 15.3438 146.156 15.332 146.332 15.3438C147.293 15.4492 147.867 15.918 148.043 16.7617ZM171.586 7.75C171.855 7.16406 171.023 5.80469 170.367 6.03906C170.133 6.10938 170.027 6.27344 169.617 6.46094C169.277 6.625 168.141 6.91797 167.391 6.95312H167.145C166.336 6.95312 165.492 6.77734 164.566 6.32031C164.379 6.25 164.18 6.15625 163.98 6.12109C163.16 5.99219 162.516 7.58594 163.008 8.11328C163.43 8.57031 164.133 8.92188 164.73 9.12109C165.387 9.34375 166.523 9.46094 167.32 9.46094H167.473C168.352 9.44922 169.535 9.25 170.227 8.92188C170.824 8.62891 171.328 8.26562 171.586 7.75ZM159.586 27.6016C159.75 27.8008 160.43 27.9297 161.613 27.9648C162.809 28 163.57 27.9766 163.887 27.9062C164.027 27.8711 164.133 27.8125 164.203 27.7305C164.344 27.5898 164.566 27.2148 164.859 26.6172C165.152 26.0195 165.422 25.4688 165.656 24.9766C165.832 24.5898 166.23 24.3906 166.828 24.3789L168.75 24.3906C168.996 24.4258 169.184 24.5312 169.336 24.707C169.582 25.0117 169.84 25.5742 170.098 26.3945C170.367 27.2031 170.637 27.6953 170.918 27.8711C171 27.9297 171.094 27.9648 171.199 27.9766C171.457 28.0117 172.09 28 173.109 27.9414C174.129 27.8828 174.984 27.7891 175.676 27.6719C176.484 27.5312 176.824 27.25 176.625 26.3125C176.473 25.668 176.18 24.5781 175.723 23.0312C175.266 21.4844 174.762 19.8672 174.188 18.1914C173.613 16.5039 173.027 14.9453 172.43 13.5156C171.832 12.0859 171.316 11.1602 170.883 10.7383C170.578 10.457 170.039 10.2812 169.277 10.2109C168.516 10.1289 167.719 10.1289 166.887 10.1992C166.055 10.2695 165.305 10.3984 164.613 10.5859C163.934 10.7617 163.523 10.9727 163.383 11.1953C163.031 11.7812 162.621 12.7891 162.141 14.2305C161.672 15.6719 161.227 17.207 160.805 18.8594C160.383 20.5 160.031 22.082 159.75 23.6055C159.469 25.1289 159.34 26.2656 159.352 27.0273C159.363 27.25 159.434 27.4492 159.586 27.6016ZM167.18 17.2656C167.484 16.9375 167.895 17.207 168.41 18.0742C168.926 18.9297 169.16 19.4805 169.113 19.7266C169.031 20.125 168.551 20.3477 167.648 20.3828C166.758 20.418 166.254 20.2539 166.137 19.9141C166.066 19.7148 166.16 19.293 166.406 18.6484C166.664 18.0039 166.922 17.5352 167.18 17.2656ZM193.559 27.4141C193.641 27.1914 193.723 26.4297 193.805 25.1055C193.887 23.7812 193.934 22.2461 193.957 20.5117C193.992 18.7773 193.992 17.0195 193.957 15.2266C193.934 13.4336 193.863 11.9688 193.746 10.8203C193.711 10.5273 193.336 10.3164 192.621 10.1758C191.918 10.0352 191.145 9.97656 190.301 10.0117C189.469 10.0352 188.695 10.1406 187.992 10.3398C187.289 10.5391 186.926 10.8203 186.914 11.1953C186.855 11.8047 186.938 13.1641 186.984 14.8398C186.621 14.3008 186.023 13.5039 185.215 12.4609C184.406 11.418 183.738 10.7734 183.199 10.5273C182.836 10.375 182.309 10.2578 181.617 10.1758C180.938 10.0938 180.258 10.0703 179.578 10.0938C178.91 10.1055 178.312 10.1758 177.785 10.3047C177.27 10.4219 177 10.5977 176.965 10.8203C176.789 11.9453 176.672 13.3984 176.625 15.1797C176.578 16.9609 176.578 18.7188 176.613 20.4531C176.66 22.1875 176.742 23.7227 176.859 25.0586C176.988 26.3945 177.129 27.1797 177.305 27.4141C177.457 27.7305 178.23 27.918 179.637 27.9766C181.055 28.0352 182.051 27.9414 182.625 27.6719C182.824 27.5781 182.977 27.0391 183.105 26.043C183.234 25.0469 183.352 23.8516 183.469 22.457C183.586 22.6211 183.867 22.9609 184.301 23.4883C184.734 24.0156 185.227 24.5664 185.754 25.1641C186.281 25.75 186.809 26.3008 187.312 26.8047C187.816 27.3086 188.203 27.6133 188.473 27.7305C188.66 27.8125 189.012 27.8828 189.527 27.9297C190.055 27.9766 190.594 27.9883 191.156 27.9766C191.73 27.9648 192.246 27.9062 192.715 27.8242C193.184 27.7422 193.465 27.6016 193.559 27.4141ZM216.551 27.4141C216.633 27.1914 216.715 26.4297 216.797 25.1055C216.879 23.7812 216.926 22.2461 216.949 20.5117C216.984 18.7773 216.984 17.0195 216.949 15.2266C216.926 13.4336 216.855 11.9688 216.738 10.8203C216.703 10.5273 216.328 10.3164 215.613 10.1758C214.91 10.0352 214.137 9.97656 213.293 10.0117C212.461 10.0352 211.688 10.1406 210.984 10.3398C210.281 10.5391 209.918 10.8203 209.906 11.1953C209.848 11.8047 209.93 13.1641 209.977 14.8398C209.613 14.3008 209.016 13.5039 208.207 12.4609C207.398 11.418 206.73 10.7734 206.191 10.5273C205.828 10.375 205.301 10.2578 204.609 10.1758C203.93 10.0938 203.25 10.0703 202.57 10.0938C201.902 10.1055 201.305 10.1758 200.777 10.3047C200.262 10.4219 199.992 10.5977 199.957 10.8203C199.781 11.9453 199.664 13.3984 199.617 15.1797C199.57 16.9609 199.57 18.7188 199.605 20.4531C199.652 22.1875 199.734 23.7227 199.852 25.0586C199.98 26.3945 200.121 27.1797 200.297 27.4141C200.449 27.7305 201.223 27.918 202.629 27.9766C204.047 28.0352 205.043 27.9414 205.617 27.6719C205.816 27.5781 205.969 27.0391 206.098 26.043C206.227 25.0469 206.344 23.8516 206.461 22.457C206.578 22.6211 206.859 22.9609 207.293 23.4883C207.727 24.0156 208.219 24.5664 208.746 25.1641C209.273 25.75 209.801 26.3008 210.305 26.8047C210.809 27.3086 211.195 27.6133 211.465 27.7305C211.652 27.8125 212.004 27.8828 212.52 27.9297C213.047 27.9766 213.586 27.9883 214.148 27.9766C214.723 27.9648 215.238 27.9062 215.707 27.8242C216.176 27.7422 216.457 27.6016 216.551 27.4141ZM228.328 15.9297C228.492 15.9531 228.562 16.0703 228.551 16.293C228.539 16.5156 228.703 16.6445 229.043 16.6914C229.289 16.7266 229.688 16.7266 230.238 16.6914C230.789 16.6562 231.352 16.5742 231.914 16.457C232.488 16.3281 232.98 16.1641 233.391 15.9648C233.801 15.7539 234 15.4961 233.965 15.1914C233.93 13.1875 233.227 11.8047 231.844 11.043C230.473 10.2812 228.938 9.92969 227.25 10.0117C224.695 10.1406 222.574 10.9727 220.898 12.4961C219.223 14.0195 218.238 16.1406 217.934 18.8594C217.664 21.3555 218.332 23.4414 219.961 25.1406C221.59 26.8398 223.605 27.7773 226.008 27.9648C227.367 28.0586 228.75 27.9414 230.156 27.6016C230.227 27.7188 230.297 27.7773 230.367 27.7891C230.848 27.9297 231.645 27.9883 232.77 27.9531C233.906 27.918 234.527 27.8242 234.656 27.6602C234.785 27.543 234.891 27.1445 234.949 26.4766C235.02 25.8086 235.055 25.0352 235.066 24.1562C235.078 23.2773 235.055 22.3984 235.008 21.4961C234.973 20.5938 234.914 19.8438 234.832 19.2578C234.785 18.9414 234.434 18.7422 233.777 18.6484C233.133 18.543 232.43 18.5312 231.668 18.6016C230.918 18.6719 230.238 18.8125 229.629 19.0234C229.02 19.2344 228.727 19.4922 228.762 19.7852C228.703 20.2305 228.633 20.6758 228.551 21.1211C228.469 21.5547 228.094 21.7773 227.414 21.7656C226.477 21.7188 225.762 21.4492 225.258 20.9688C224.754 20.4766 224.473 19.9258 224.391 19.3047C224.309 18.6836 224.449 18.0625 224.789 17.4648C225.129 16.8672 225.68 16.4219 226.441 16.1523C226.992 15.9648 227.613 15.8945 228.328 15.9297ZM253.863 20.3008C254.309 17.5586 253.723 15.2148 252.117 13.2695C250.512 11.3242 248.273 10.2227 245.379 9.97656C242.977 9.76562 240.879 10.4219 239.062 11.957C237.258 13.4805 236.168 15.3672 235.805 17.6172C235.418 20.043 235.945 22.2461 237.398 24.2383C238.852 26.2305 240.844 27.4375 243.375 27.8594C246 28.293 248.297 27.7656 250.277 26.2539C252.258 24.7422 253.453 22.7617 253.863 20.3008ZM247.137 19.3047C247.055 19.8086 246.832 20.2539 246.469 20.6172C246.105 20.9805 245.66 21.1914 245.121 21.25C244.336 21.3438 243.68 21.1094 243.152 20.5586C242.625 19.9961 242.414 19.3516 242.543 18.625C242.637 18.0273 242.93 17.5234 243.434 17.1367C243.938 16.7383 244.512 16.5977 245.168 16.7031C245.859 16.8203 246.387 17.1133 246.75 17.5938C247.113 18.0625 247.242 18.6367 247.137 19.3047ZM272.145 27.4141C272.227 27.1914 272.309 26.4297 272.391 25.1055C272.473 23.7812 272.52 22.2461 272.543 20.5117C272.578 18.7773 272.578 17.0195 272.543 15.2266C272.52 13.4336 272.449 11.9688 272.332 10.8203C272.297 10.5273 271.922 10.3164 271.207 10.1758C270.504 10.0352 269.73 9.97656 268.887 10.0117C268.055 10.0352 267.281 10.1406 266.578 10.3398C265.875 10.5391 265.512 10.8203 265.5 11.1953C265.441 11.8047 265.523 13.1641 265.57 14.8398C265.207 14.3008 264.609 13.5039 263.801 12.4609C262.992 11.418 262.324 10.7734 261.785 10.5273C261.422 10.375 260.895 10.2578 260.203 10.1758C259.523 10.0938 258.844 10.0703 258.164 10.0938C257.496 10.1055 256.898 10.1758 256.371 10.3047C255.855 10.4219 255.586 10.5977 255.551 10.8203C255.375 11.9453 255.258 13.3984 255.211 15.1797C255.164 16.9609 255.164 18.7188 255.199 20.4531C255.246 22.1875 255.328 23.7227 255.445 25.0586C255.574 26.3945 255.715 27.1797 255.891 27.4141C256.043 27.7305 256.816 27.918 258.223 27.9766C259.641 28.0352 260.637 27.9414 261.211 27.6719C261.41 27.5781 261.562 27.0391 261.691 26.043C261.82 25.0469 261.938 23.8516 262.055 22.457C262.172 22.6211 262.453 22.9609 262.887 23.4883C263.32 24.0156 263.812 24.5664 264.34 25.1641C264.867 25.75 265.395 26.3008 265.898 26.8047C266.402 27.3086 266.789 27.6133 267.059 27.7305C267.246 27.8125 267.598 27.8828 268.113 27.9297C268.641 27.9766 269.18 27.9883 269.742 27.9766C270.316 27.9648 270.832 27.9062 271.301 27.8242C271.77 27.7422 272.051 27.6016 272.145 27.4141ZM275.098 27.6602C275.508 27.918 275.707 28.2578 275.707 28.6797C275.707 29.1133 275.859 29.3477 276.152 29.3828C276.762 29.4531 277.359 28.9961 277.934 28.0234C278.52 27.0508 278.836 26.3242 278.895 25.8438C278.953 25.4922 278.941 25.1523 278.871 24.8125C278.73 24.1914 278.379 23.7109 277.805 23.3711C277.23 23.0312 276.645 22.8906 276.035 22.9609C274.781 23.1133 274.055 23.8281 273.844 25.0938C273.691 26.043 273.984 26.8164 274.734 27.4023C274.887 27.5312 275.016 27.6133 275.098 27.6602ZM300.926 27.4141C301.008 27.1914 301.09 26.4297 301.172 25.1055C301.254 23.7812 301.301 22.2461 301.324 20.5117C301.359 18.7773 301.359 17.0195 301.324 15.2266C301.301 13.4336 301.23 11.9688 301.113 10.8203C301.078 10.5273 300.703 10.3164 299.988 10.1758C299.285 10.0352 298.512 9.97656 297.668 10.0117C296.836 10.0352 296.062 10.1406 295.359 10.3398C294.656 10.5391 294.293 10.8203 294.281 11.1953C294.223 11.8047 294.305 13.1641 294.352 14.8398C293.988 14.3008 293.391 13.5039 292.582 12.4609C291.773 11.418 291.105 10.7734 290.566 10.5273C290.203 10.375 289.676 10.2578 288.984 10.1758C288.305 10.0938 287.625 10.0703 286.945 10.0938C286.277 10.1055 285.68 10.1758 285.152 10.3047C284.637 10.4219 284.367 10.5977 284.332 10.8203C284.156 11.9453 284.039 13.3984 283.992 15.1797C283.945 16.9609 283.945 18.7188 283.98 20.4531C284.027 22.1875 284.109 23.7227 284.227 25.0586C284.355 26.3945 284.496 27.1797 284.672 27.4141C284.824 27.7305 285.598 27.918 287.004 27.9766C288.422 28.0352 289.418 27.9414 289.992 27.6719C290.191 27.5781 290.344 27.0391 290.473 26.043C290.602 25.0469 290.719 23.8516 290.836 22.457C290.953 22.6211 291.234 22.9609 291.668 23.4883C292.102 24.0156 292.594 24.5664 293.121 25.1641C293.648 25.75 294.176 26.3008 294.68 26.8047C295.184 27.3086 295.57 27.6133 295.84 27.7305C296.027 27.8125 296.379 27.8828 296.895 27.9297C297.422 27.9766 297.961 27.9883 298.523 27.9766C299.098 27.9648 299.613 27.9062 300.082 27.8242C300.551 27.7422 300.832 27.6016 300.926 27.4141ZM312.703 15.9297C312.867 15.9531 312.938 16.0703 312.926 16.293C312.914 16.5156 313.078 16.6445 313.418 16.6914C313.664 16.7266 314.062 16.7266 314.613 16.6914C315.164 16.6562 315.727 16.5742 316.289 16.457C316.863 16.3281 317.355 16.1641 317.766 15.9648C318.176 15.7539 318.375 15.4961 318.34 15.1914C318.305 13.1875 317.602 11.8047 316.219 11.043C314.848 10.2812 313.312 9.92969 311.625 10.0117C309.07 10.1406 306.949 10.9727 305.273 12.4961C303.598 14.0195 302.613 16.1406 302.309 18.8594C302.039 21.3555 302.707 23.4414 304.336 25.1406C305.965 26.8398 307.98 27.7773 310.383 27.9648C311.742 28.0586 313.125 27.9414 314.531 27.6016C314.602 27.7188 314.672 27.7773 314.742 27.7891C315.223 27.9297 316.02 27.9883 317.145 27.9531C318.281 27.918 318.902 27.8242 319.031 27.6602C319.16 27.543 319.266 27.1445 319.324 26.4766C319.395 25.8086 319.43 25.0352 319.441 24.1562C319.453 23.2773 319.43 22.3984 319.383 21.4961C319.348 20.5938 319.289 19.8438 319.207 19.2578C319.16 18.9414 318.809 18.7422 318.152 18.6484C317.508 18.543 316.805 18.5312 316.043 18.6016C315.293 18.6719 314.613 18.8125 314.004 19.0234C313.395 19.2344 313.102 19.4922 313.137 19.7852C313.078 20.2305 313.008 20.6758 312.926 21.1211C312.844 21.5547 312.469 21.7773 311.789 21.7656C310.852 21.7188 310.137 21.4492 309.633 20.9688C309.129 20.4766 308.848 19.9258 308.766 19.3047C308.684 18.6836 308.824 18.0625 309.164 17.4648C309.504 16.8672 310.055 16.4219 310.816 16.1523C311.367 15.9648 311.988 15.8945 312.703 15.9297ZM328.852 6.49609C329.051 6.50781 329.18 6.4375 329.215 6.26172C329.344 5.92188 329.625 5.79297 330.059 5.86328C330.492 5.92188 330.656 6.15625 330.551 6.56641C330.48 6.77734 330.199 6.98828 329.719 7.21094C329.238 7.42188 328.91 7.72656 328.758 8.11328C328.605 8.5 328.57 8.88672 328.652 9.27344C328.559 9.63672 330.738 9.63672 330.68 9.20312C330.668 8.93359 330.75 8.78125 330.938 8.73438C331.629 8.60547 332.133 8.30078 332.438 7.80859C332.73 7.32812 332.883 6.83594 332.871 6.30859C332.859 5.78125 332.754 5.3125 332.555 4.90234C332.355 4.48047 331.98 4.14062 331.43 3.89453C330.879 3.63672 330.305 3.53125 329.695 3.57812C329.039 3.63672 328.477 3.83594 328.008 4.17578C327.551 4.51562 327.246 4.9375 327.117 5.41797C327.059 5.62891 327.141 5.81641 327.34 5.96875C327.68 6.28516 328.383 6.48438 328.852 6.49609ZM331.84 11.0312C331.805 11.582 331.793 12.4375 331.828 13.5859C331.863 14.7344 331.828 15.8828 331.723 17.0195C331.617 18.1562 331.395 19.1289 331.043 19.9609C330.703 20.7812 330.129 21.1445 329.332 21.0508C328.594 20.9688 328.09 20.5234 327.797 19.6914C327.516 18.8594 327.352 17.8984 327.305 16.8086C327.27 15.7188 327.293 14.6172 327.375 13.5273C327.457 12.4258 327.516 11.5703 327.527 10.9609C327.527 10.75 327.234 10.5742 326.648 10.4453C326.074 10.3047 325.406 10.2109 324.656 10.1758C323.918 10.1406 323.191 10.1523 322.5 10.2227C321.809 10.293 321.352 10.4336 321.129 10.6445C320.871 10.9023 320.672 11.5234 320.543 12.4961C320.414 13.4688 320.344 14.5469 320.332 15.7305C320.32 16.9141 320.367 18.0859 320.461 19.2461C320.566 20.4062 320.73 21.2852 320.953 21.9062C321.633 23.8047 322.852 25.3281 324.621 26.4766C326.391 27.6133 328.289 28.1172 330.34 27.9766C331.969 27.8477 333.41 27.332 334.664 26.4297C335.93 25.5273 336.891 24.3555 337.547 22.9141C337.852 22.2461 338.086 21.332 338.25 20.1719C338.426 19.0117 338.531 17.8398 338.566 16.6328C338.613 15.4258 338.602 14.3125 338.531 13.293C338.473 12.2734 338.355 11.5469 338.191 11.1367C338.074 10.8555 337.676 10.6562 337.008 10.5273C336.34 10.3984 335.625 10.3398 334.863 10.3516C334.102 10.3516 333.41 10.4102 332.789 10.5391C332.168 10.6562 331.852 10.8203 331.84 11.0312ZM361.23 27.4141C361.312 27.1914 361.395 26.4297 361.477 25.1055C361.559 23.7812 361.605 22.2461 361.629 20.5117C361.664 18.7773 361.664 17.0195 361.629 15.2266C361.605 13.4336 361.535 11.9688 361.418 10.8203C361.383 10.5273 361.008 10.3164 360.293 10.1758C359.59 10.0352 358.816 9.97656 357.973 10.0117C357.141 10.0352 356.367 10.1406 355.664 10.3398C354.961 10.5391 354.598 10.8203 354.586 11.1953C354.527 11.8047 354.609 13.1641 354.656 14.8398C354.293 14.3008 353.695 13.5039 352.887 12.4609C352.078 11.418 351.41 10.7734 350.871 10.5273C350.508 10.375 349.98 10.2578 349.289 10.1758C348.609 10.0938 347.93 10.0703 347.25 10.0938C346.582 10.1055 345.984 10.1758 345.457 10.3047C344.941 10.4219 344.672 10.5977 344.637 10.8203C344.461 11.9453 344.344 13.3984 344.297 15.1797C344.25 16.9609 344.25 18.7188 344.285 20.4531C344.332 22.1875 344.414 23.7227 344.531 25.0586C344.66 26.3945 344.801 27.1797 344.977 27.4141C345.129 27.7305 345.902 27.918 347.309 27.9766C348.727 28.0352 349.723 27.9414 350.297 27.6719C350.496 27.5781 350.648 27.0391 350.777 26.043C350.906 25.0469 351.023 23.8516 351.141 22.457C351.258 22.6211 351.539 22.9609 351.973 23.4883C352.406 24.0156 352.898 24.5664 353.426 25.1641C353.953 25.75 354.48 26.3008 354.984 26.8047C355.488 27.3086 355.875 27.6133 356.145 27.7305C356.332 27.8125 356.684 27.8828 357.199 27.9297C357.727 27.9766 358.266 27.9883 358.828 27.9766C359.402 27.9648 359.918 27.9062 360.387 27.8242C360.855 27.7422 361.137 27.6016 361.23 27.4141ZM373.008 15.9297C373.172 15.9531 373.242 16.0703 373.23 16.293C373.219 16.5156 373.383 16.6445 373.723 16.6914C373.969 16.7266 374.367 16.7266 374.918 16.6914C375.469 16.6562 376.031 16.5742 376.594 16.457C377.168 16.3281 377.66 16.1641 378.07 15.9648C378.48 15.7539 378.68 15.4961 378.645 15.1914C378.609 13.1875 377.906 11.8047 376.523 11.043C375.152 10.2812 373.617 9.92969 371.93 10.0117C369.375 10.1406 367.254 10.9727 365.578 12.4961C363.902 14.0195 362.918 16.1406 362.613 18.8594C362.344 21.3555 363.012 23.4414 364.641 25.1406C366.27 26.8398 368.285 27.7773 370.688 27.9648C372.047 28.0586 373.43 27.9414 374.836 27.6016C374.906 27.7188 374.977 27.7773 375.047 27.7891C375.527 27.9297 376.324 27.9883 377.449 27.9531C378.586 27.918 379.207 27.8242 379.336 27.6602C379.465 27.543 379.57 27.1445 379.629 26.4766C379.699 25.8086 379.734 25.0352 379.746 24.1562C379.758 23.2773 379.734 22.3984 379.688 21.4961C379.652 20.5938 379.594 19.8438 379.512 19.2578C379.465 18.9414 379.113 18.7422 378.457 18.6484C377.812 18.543 377.109 18.5312 376.348 18.6016C375.598 18.6719 374.918 18.8125 374.309 19.0234C373.699 19.2344 373.406 19.4922 373.441 19.7852C373.383 20.2305 373.312 20.6758 373.23 21.1211C373.148 21.5547 372.773 21.7773 372.094 21.7656C371.156 21.7188 370.441 21.4492 369.938 20.9688C369.434 20.4766 369.152 19.9258 369.07 19.3047C368.988 18.6836 369.129 18.0625 369.469 17.4648C369.809 16.8672 370.359 16.4219 371.121 16.1523C371.672 15.9648 372.293 15.8945 373.008 15.9297ZM398.543 20.3008C398.988 17.5586 398.402 15.2148 396.797 13.2695C395.191 11.3242 392.953 10.2227 390.059 9.97656C387.656 9.76562 385.559 10.4219 383.742 11.957C381.938 13.4805 380.848 15.3672 380.484 17.6172C380.098 20.043 380.625 22.2461 382.078 24.2383C383.531 26.2305 385.523 27.4375 388.055 27.8594C390.68 28.293 392.977 27.7656 394.957 26.2539C396.938 24.7422 398.133 22.7617 398.543 20.3008ZM391.816 19.3047C391.734 19.8086 391.512 20.2539 391.148 20.6172C390.785 20.9805 390.34 21.1914 389.801 21.25C389.016 21.3438 388.359 21.1094 387.832 20.5586C387.305 19.9961 387.094 19.3516 387.223 18.625C387.316 18.0273 387.609 17.5234 388.113 17.1367C388.617 16.7383 389.191 16.5977 389.848 16.7031C390.539 16.8203 391.066 17.1133 391.43 17.5938C391.793 18.0625 391.922 18.6367 391.816 19.3047ZM416.824 27.4141C416.906 27.1914 416.988 26.4297 417.07 25.1055C417.152 23.7812 417.199 22.2461 417.223 20.5117C417.258 18.7773 417.258 17.0195 417.223 15.2266C417.199 13.4336 417.129 11.9688 417.012 10.8203C416.977 10.5273 416.602 10.3164 415.887 10.1758C415.184 10.0352 414.41 9.97656 413.566 10.0117C412.734 10.0352 411.961 10.1406 411.258 10.3398C410.555 10.5391 410.191 10.8203 410.18 11.1953C410.121 11.8047 410.203 13.1641 410.25 14.8398C409.887 14.3008 409.289 13.5039 408.48 12.4609C407.672 11.418 407.004 10.7734 406.465 10.5273C406.102 10.375 405.574 10.2578 404.883 10.1758C404.203 10.0938 403.523 10.0703 402.844 10.0938C402.176 10.1055 401.578 10.1758 401.051 10.3047C400.535 10.4219 400.266 10.5977 400.23 10.8203C400.055 11.9453 399.938 13.3984 399.891 15.1797C399.844 16.9609 399.844 18.7188 399.879 20.4531C399.926 22.1875 400.008 23.7227 400.125 25.0586C400.254 26.3945 400.395 27.1797 400.57 27.4141C400.723 27.7305 401.496 27.918 402.902 27.9766C404.32 28.0352 405.316 27.9414 405.891 27.6719C406.09 27.5781 406.242 27.0391 406.371 26.043C406.5 25.0469 406.617 23.8516 406.734 22.457C406.852 22.6211 407.133 22.9609 407.566 23.4883C408 24.0156 408.492 24.5664 409.02 25.1641C409.547 25.75 410.074 26.3008 410.578 26.8047C411.082 27.3086 411.469 27.6133 411.738 27.7305C411.926 27.8125 412.277 27.8828 412.793 27.9297C413.32 27.9766 413.859 27.9883 414.422 27.9766C414.996 27.9648 415.512 27.9062 415.98 27.8242C416.449 27.7422 416.73 27.6016 416.824 27.4141Z" fill="#330656"/><path d="M73.2812 54.5781C72.3281 54.4375 71.9375 53.9219 72.0938 53.0312C72.2344 52.125 72.7812 51.75 73.7031 51.8906C74.375 52 74.7656 52.3281 74.9062 52.875C75.0156 53.3594 74.9062 53.7969 74.5469 54.1562C74.2031 54.5156 73.7812 54.6562 73.2812 54.5781ZM73.2031 64.4062C72.7031 64.3281 72.2969 64.1094 71.9688 63.75C71.6562 63.375 71.5469 62.9531 71.6406 62.4688C71.7188 62.0156 71.9688 61.6406 72.375 61.3594C72.7969 61.0625 73.2656 60.9688 73.7812 61.0469C74.6406 61.1875 75.1719 61.5938 75.3594 62.2812C75.5 62.8906 75.3438 63.4219 74.8906 63.875C74.4375 64.3281 73.875 64.5156 73.2031 64.4062ZM79.5625 59.4844C79.2344 59.2188 78.9062 58.9219 78.5938 58.625C79.9062 57.5469 80.6719 56.2656 80.9062 54.7812C81.1406 53.2812 80.9531 51.8594 80.3281 50.5312C79.7031 49.1875 78.7031 48.0781 77.3125 47.1875C75.9375 46.2969 74.2969 45.9375 72.3906 46.0781C71 46.1875 69.75 46.6562 68.6406 47.4688C67.5312 48.2656 66.6719 49.25 66.0781 50.4219C65.5 51.5781 65.2344 52.8281 65.3125 54.1719C65.3906 55.5 65.9375 56.75 66.9531 57.9062C65.5625 59.4531 64.9062 61.2031 65.0156 63.1406C65.125 65.0781 65.9688 66.6875 67.5312 67.9688C69.0781 69.25 70.9688 69.9219 73.2344 69.9844C75.5 70.0469 77.5156 69.5781 79.2656 68.5781C79.375 68.5156 79.4531 68.4688 79.5156 68.4375C80.3281 69 80.875 69.2812 81.1562 69.2969C81.625 69.3438 82.4531 68.7812 83.625 67.6406C84.8125 66.4844 85.4219 65.5469 85.4531 64.8281C85.4688 64.6406 85.2344 64.25 84.75 63.6562C85.0625 63.2656 85.25 63 85.2969 62.8594C85.375 62.6406 85.1875 62.2656 84.75 61.75C84.3125 61.2188 83.7969 60.7031 83.1875 60.2031C82.5938 59.7031 82 59.2969 81.4062 58.9688C80.8125 58.6406 80.3906 58.5781 80.1562 58.75C80.0781 58.8281 79.875 59.1094 79.5625 59.4844ZM108.812 69.2344C109.109 68.8438 109.359 67.2812 109.547 64.5625C109.734 61.8281 109.844 59 109.875 56.0625C112.062 55.9844 113.938 55.8594 114.734 55.7344C115.156 55.7031 115.516 55.2031 115.812 54.2188C116.109 53.2344 116.297 52.1719 116.359 51C116.422 49.8281 116.344 48.7656 116.125 47.7812C115.906 46.7969 115.5 46.2969 114.906 46.25C113.406 46.1562 111.484 46.0938 109.156 46.0781C106.828 46.0469 104.531 46.0625 102.266 46.125C100 46.1719 98 46.2812 96.2656 46.4219C94.5312 46.5625 93.5 46.7656 93.2031 47C93 47.1094 92.8594 47.5469 92.7969 48.2969C92.75 49.0312 92.7344 49.875 92.7812 50.7969C92.8281 51.7188 92.9062 52.6094 93.0469 53.5C93.1875 54.375 93.3438 55.0156 93.5469 55.4062C93.6562 55.6562 94.2812 55.8438 95.3906 55.9844C96.5 56.1094 97.8281 56.1875 99.375 56.2188C99.5469 59.1719 99.8125 62.0781 100.141 64.9688C100.484 67.8438 100.875 69.375 101.297 69.5625C101.703 69.7344 102.297 69.8594 103.094 69.9219C103.891 69.9844 104.688 70 105.484 69.9688C106.297 69.9375 107.031 69.8594 107.672 69.7344C108.312 69.6094 108.703 69.4375 108.812 69.2344ZM130.812 43C131.172 42.2188 130.062 40.4062 129.188 40.7188C128.875 40.8125 128.734 41.0312 128.188 41.2812C127.734 41.5 126.219 41.8906 125.219 41.9375H124.891C123.812 41.9375 122.688 41.7031 121.453 41.0938C121.203 41 120.938 40.875 120.672 40.8281C119.578 40.6562 118.719 42.7812 119.375 43.4844C119.938 44.0938 120.875 44.5625 121.672 44.8281C122.547 45.125 124.062 45.2812 125.125 45.2812H125.328C126.5 45.2656 128.078 45 129 44.5625C129.797 44.1719 130.469 43.6875 130.812 43ZM114.812 69.4688C115.031 69.7344 115.938 69.9062 117.516 69.9531C119.109 70 120.125 69.9688 120.547 69.875C120.734 69.8281 120.875 69.75 120.969 69.6406C121.156 69.4531 121.453 68.9531 121.844 68.1562C122.234 67.3594 122.594 66.625 122.906 65.9688C123.141 65.4531 123.672 65.1875 124.469 65.1719L127.031 65.1875C127.359 65.2344 127.609 65.375 127.812 65.6094C128.141 66.0156 128.484 66.7656 128.828 67.8594C129.188 68.9375 129.547 69.5938 129.922 69.8281C130.031 69.9062 130.156 69.9531 130.297 69.9688C130.641 70.0156 131.484 70 132.844 69.9219C134.203 69.8438 135.344 69.7188 136.266 69.5625C137.344 69.375 137.797 69 137.531 67.75C137.328 66.8906 136.938 65.4375 136.328 63.375C135.719 61.3125 135.047 59.1562 134.281 56.9219C133.516 54.6719 132.734 52.5938 131.938 50.6875C131.141 48.7812 130.453 47.5469 129.875 46.9844C129.469 46.6094 128.75 46.375 127.734 46.2812C126.719 46.1719 125.656 46.1719 124.547 46.2656C123.438 46.3594 122.438 46.5312 121.516 46.7812C120.609 47.0156 120.062 47.2969 119.875 47.5938C119.406 48.375 118.859 49.7188 118.219 51.6406C117.594 53.5625 117 55.6094 116.438 57.8125C115.875 60 115.406 62.1094 115.031 64.1406C114.656 66.1719 114.484 67.6875 114.5 68.7031C114.516 69 114.609 69.2656 114.812 69.4688ZM124.938 55.6875C125.344 55.25 125.891 55.6094 126.578 56.7656C127.266 57.9062 127.578 58.6406 127.516 58.9688C127.406 59.5 126.766 59.7969 125.562 59.8438C124.375 59.8906 123.703 59.6719 123.547 59.2188C123.453 58.9531 123.578 58.3906 123.906 57.5312C124.25 56.6719 124.594 56.0469 124.938 55.6875ZM160.109 69.2188C160.219 68.9219 160.328 67.9062 160.438 66.1406C160.547 64.375 160.609 62.3281 160.641 60.0156C160.688 57.7031 160.688 55.3594 160.641 52.9688C160.609 50.5781 160.516 48.625 160.359 47.0938C160.312 46.7031 159.812 46.4219 158.859 46.2344C157.922 46.0469 156.891 45.9688 155.766 46.0156C154.656 46.0469 153.625 46.1875 152.688 46.4531C151.75 46.7188 151.266 47.0938 151.25 47.5938C151.172 48.4062 151.281 50.2188 151.344 52.4531C150.859 51.7344 150.062 50.6719 148.984 49.2812C147.906 47.8906 147.016 47.0312 146.297 46.7031C145.812 46.5 145.109 46.3438 144.188 46.2344C143.281 46.125 142.375 46.0938 141.469 46.125C140.578 46.1406 139.781 46.2344 139.078 46.4062C138.391 46.5625 138.031 46.7969 137.984 47.0938C137.75 48.5938 137.594 50.5312 137.531 52.9062C137.469 55.2812 137.469 57.625 137.516 59.9375C137.578 62.25 137.688 64.2969 137.844 66.0781C138.016 67.8594 138.203 68.9062 138.438 69.2188C138.641 69.6406 139.672 69.8906 141.547 69.9688C143.438 70.0469 144.766 69.9219 145.531 69.5625C145.797 69.4375 146 68.7188 146.172 67.3906C146.344 66.0625 146.5 64.4688 146.656 62.6094C146.812 62.8281 147.188 63.2812 147.766 63.9844C148.344 64.6875 149 65.4219 149.703 66.2188C150.406 67 151.109 67.7344 151.781 68.4062C152.453 69.0781 152.969 69.4844 153.328 69.6406C153.578 69.75 154.047 69.8438 154.734 69.9062C155.438 69.9688 156.156 69.9844 156.906 69.9688C157.672 69.9531 158.359 69.875 158.984 69.7656C159.609 69.6562 159.984 69.4688 160.109 69.2188ZM175.812 53.9062C176.031 53.9375 176.125 54.0938 176.109 54.3906C176.094 54.6875 176.312 54.8594 176.766 54.9219C177.094 54.9688 177.625 54.9688 178.359 54.9219C179.094 54.875 179.844 54.7656 180.594 54.6094C181.359 54.4375 182.016 54.2188 182.562 53.9531C183.109 53.6719 183.375 53.3281 183.328 52.9219C183.281 50.25 182.344 48.4062 180.5 47.3906C178.672 46.375 176.625 45.9062 174.375 46.0156C170.969 46.1875 168.141 47.2969 165.906 49.3281C163.672 51.3594 162.359 54.1875 161.953 57.8125C161.594 61.1406 162.484 63.9219 164.656 66.1875C166.828 68.4531 169.516 69.7031 172.719 69.9531C174.531 70.0781 176.375 69.9219 178.25 69.4688C178.344 69.625 178.438 69.7031 178.531 69.7188C179.172 69.9062 180.234 69.9844 181.734 69.9375C183.25 69.8906 184.078 69.7656 184.25 69.5469C184.422 69.3906 184.562 68.8594 184.641 67.9688C184.734 67.0781 184.781 66.0469 184.797 64.875C184.812 63.7031 184.781 62.5312 184.719 61.3281C184.672 60.125 184.594 59.125 184.484 58.3438C184.422 57.9219 183.953 57.6562 183.078 57.5312C182.219 57.3906 181.281 57.375 180.266 57.4688C179.266 57.5625 178.359 57.75 177.547 58.0312C176.734 58.3125 176.344 58.6562 176.391 59.0469C176.312 59.6406 176.219 60.2344 176.109 60.8281C176 61.4062 175.5 61.7031 174.594 61.6875C173.344 61.625 172.391 61.2656 171.719 60.625C171.047 59.9688 170.672 59.2344 170.562 58.4062C170.453 57.5781 170.641 56.75 171.094 55.9531C171.547 55.1562 172.281 54.5625 173.297 54.2031C174.031 53.9531 174.859 53.8594 175.812 53.9062ZM212.297 62.9688C213.344 60.5156 213.484 57.9219 212.719 55.1719C211.969 52.4062 210.562 50.2031 208.5 48.5312C206.922 47.2812 205 46.5 202.734 46.1719C200.469 45.8438 198.375 45.8281 196.422 46.0938C195.203 46.2656 194.297 46.5469 193.703 46.9219C193.109 47.2812 192.703 48.6094 192.484 50.9062C192.328 52.4844 192.25 54.1562 192.234 55.9219C191.703 55.9531 191.234 55.9844 190.812 56.0156C190.531 56.0469 190.328 56.2812 190.219 56.7031C190.094 57.125 190.047 57.5938 190.062 58.1094C190.078 58.625 190.188 59.0938 190.375 59.5156C190.547 59.9375 190.812 60.1719 191.141 60.2031C191.391 60.2188 191.797 60.2344 192.344 60.25C192.453 62.1719 192.641 63.9844 192.922 65.6719C193.281 67.9062 193.766 69.1406 194.375 69.3906C194.766 69.5625 195.391 69.7031 196.25 69.8125C197.125 69.9219 198.031 69.9844 198.969 70C201.719 70.0469 204.344 69.5625 206.828 68.5625C209.312 67.5469 211.141 65.6875 212.297 62.9688ZM202.344 56.1719C202.172 56.0625 201.609 55.9844 200.688 55.9375C200.625 55.9219 200.562 55.9219 200.5 55.9219C200.594 55.625 200.781 55.4531 201.078 55.3906C201.391 55.3125 201.703 55.2969 202 55.3125C202.75 55.3906 203.469 55.7188 204.141 56.3125C204.828 56.9062 205.141 57.625 205.062 58.4688C204.938 59.8438 203.688 60.5312 202.062 60.5781C201.562 60.5938 201.234 60.5625 201.062 60.4531C200.938 60.3906 200.828 60.2656 200.719 60.0781H200.812C201.859 60 202.453 59.875 202.562 59.7344C202.828 59.4062 202.938 58.75 202.875 57.7812C202.812 56.7969 202.641 56.2656 202.344 56.1719ZM227.625 39.2344C227.812 39.125 227.984 38.875 228.141 38.5156C228.312 38.1562 228.406 37.875 228.453 37.6719C228.531 37.1875 227.344 36.3438 225.266 35.4844C223.188 34.6094 221.656 34.0312 221.109 33.9688C220.734 33.9062 220.453 33.9531 220.25 34.1094C220.047 34.25 219.828 34.6406 219.594 35.2812C219.141 36.5312 219.234 36.9219 219.531 37.1094C220.422 37.625 221.906 38.1562 223.984 38.7344C226.062 39.3125 227.281 39.4688 227.625 39.2344ZM229.734 42.8438C229.562 42.75 229.125 42.5 228.453 42.1094C227.781 41.7031 227.047 41.2812 226.25 40.8594C225.453 40.4375 224.719 40.0625 224.016 39.75C223.312 39.4375 222.875 39.3125 222.688 39.3594C222.344 39.375 221.406 39.875 219.859 40.8281C218.328 41.7812 217.203 42.5312 216.5 43.1094C216.266 43.3281 216.406 43.7656 216.938 44.4375C217.469 45.1094 217.938 45.3438 218.359 45.1406C218.578 45.0156 219.172 44.75 220.125 44.3594C221.094 43.9688 222.047 43.5938 223 43.2344C224.031 43.5781 225.078 43.9375 226.156 44.3281C227.234 44.7031 227.891 44.9531 228.156 45.0625C228.578 45.25 229 44.9688 229.453 44.2344C229.906 43.5 230 43.0312 229.734 42.8438ZM224.922 60.7656C226.25 60.7188 227.453 60.625 227.875 60.5C228.172 60.4531 228.344 60.1562 228.422 59.5781C228.5 59 228.5 58.3906 228.422 57.7188C228.359 57.0469 228.234 56.4219 228.062 55.8594C227.891 55.2812 227.719 54.9688 227.547 54.9219C226.812 54.7656 225.844 54.6719 224.672 54.6562C224.656 54.4062 224.625 54.0312 224.625 53.7812C226.422 53.7188 228 53.6406 229.344 53.5625C230.703 53.4688 231.438 53.2344 231.547 52.8594C231.781 52.0625 231.875 50.875 231.828 49.2969C231.797 47.7188 231.641 46.8125 231.359 46.5781C231.125 46.3438 230.234 46.1875 228.688 46.1094C227.141 46.0156 225.453 45.9844 223.625 46.0156C221.797 46.0312 220.109 46.1094 218.531 46.2188C216.953 46.3281 216.047 46.4688 215.781 46.625C215.516 46.7812 215.328 47.1719 215.203 47.7969C215.078 48.4062 215.016 49.0938 215.016 49.8438C214.953 51.2031 214.938 52.9844 214.953 55.1562C214.969 57.3281 215.047 59.4531 215.156 61.5469C215.266 63.625 215.422 65.4531 215.625 67.0156C215.828 68.5625 216.094 69.4062 216.406 69.5312C216.938 69.7656 218.078 69.9062 219.828 69.9531C221.578 70 223.406 70 225.312 69.9219C227.219 69.8438 228.938 69.6875 230.469 69.4688C232 69.25 232.812 68.9688 232.922 68.6406C233.156 67.8438 233.203 66.5781 233.062 64.8125C232.938 63.0469 232.734 62.0625 232.453 61.8281C232.188 61.5469 231.328 61.4531 229.859 61.5312C228.391 61.6094 226.75 61.6719 224.922 61.6875V60.7656ZM261.062 51.9219C261.094 51.5156 260.484 50.6719 259.25 49.4062C258.016 48.1406 257 47.3125 256.188 46.9375C255.875 46.8125 255.219 47.0625 254.203 47.6875C253.203 48.3125 252.094 49.1406 250.875 50.1562C250.828 48.9844 250.75 48.0781 250.672 47.2031C250.625 46.8125 250.078 46.5312 249.047 46.3594C248.031 46.1875 246.906 46.1406 245.672 46.1875C244.438 46.2344 243.297 46.4062 242.25 46.6875C241.203 46.9531 240.641 47.3438 240.562 47.8281C240.453 48.6094 240.422 50.1562 240.453 52.4531C240.484 54.75 240.578 57.1562 240.719 59.6406C240.875 62.125 241.078 64.375 241.344 66.375C241.609 68.3594 241.922 69.4375 242.281 69.5938C243.078 69.9375 244.438 70.0625 246.375 69.9531C248.328 69.8438 249.422 69.5938 249.656 69.1719C249.859 68.9062 250.062 68.0625 250.25 66.6562C251.766 67.4531 253.188 68.1719 254.531 68.8125C255.875 69.4531 256.812 69.8438 257.344 69.9531C257.828 70.0469 258.375 69.7031 258.953 68.9375C259.547 68.1719 260.062 67.2656 260.5 66.25C260.938 65.2344 261.234 64.25 261.406 63.2969C261.578 62.3438 261.5 61.75 261.172 61.5156C259.844 60.6094 258.078 59.5781 255.859 58.4375C257.25 57 258.484 55.6562 259.531 54.4062C260.578 53.1562 261.094 52.3281 261.062 51.9219ZM271.891 69.2188C272.031 69 272.156 68.4219 272.266 67.4844C272.375 66.5469 272.484 65.3906 272.562 64.0312C273.703 63.8906 274.922 63.7188 276.094 63.4844C276.234 64.9844 276.375 66.2656 276.547 67.3125C276.719 68.3594 276.875 68.9844 277.047 69.2031C277.266 69.6094 278.25 69.8594 280.016 69.9375C281.781 70.0156 283.031 69.875 283.766 69.5156C284.078 69.3594 284.344 68.2969 284.578 66.3125C284.812 64.3281 285 62.1094 285.125 59.6406C285.266 57.1562 285.344 54.7812 285.359 52.5C285.391 50.2031 285.359 48.6719 285.25 47.9062C285.156 47.2656 284.609 46.7969 283.594 46.4688C282.594 46.1406 281.5 45.9531 280.328 45.9219C279.156 45.8906 278.078 46 277.094 46.2656C276.109 46.5156 275.609 46.9062 275.578 47.4375C275.453 49.1875 275.453 51.6562 275.531 54.3281C274.562 54.3438 273.641 54.375 272.75 54.4219C272.703 51.7344 272.594 49.2031 272.406 47.4375C272.344 46.9219 271.812 46.5312 270.828 46.2812C269.844 46.0312 268.75 45.9219 267.578 45.9688C266.406 46 265.312 46.1875 264.328 46.5156C263.344 46.8438 262.812 47.3281 262.75 47.9688C262.688 48.7344 262.719 50.2656 262.828 52.5625C262.953 54.8438 263.125 57.2188 263.359 59.6875C263.594 62.1562 263.875 64.3906 264.188 66.375C264.516 68.3594 264.844 69.4219 265.172 69.5781C265.922 69.9219 267.172 70.0469 268.938 69.9688C270.703 69.875 271.688 69.625 271.891 69.2188ZM293.344 45.3906C293.688 45.625 294.906 45.4688 296.984 44.8906C299.062 44.3125 300.547 43.7812 301.438 43.2656C301.734 43.0781 301.844 42.6875 301.359 41.4375C301.125 40.7969 300.922 40.4062 300.719 40.2656C300.516 40.1094 300.234 40.0625 299.859 40.125C299.312 40.1875 297.781 40.7656 295.703 41.6406C293.625 42.5 292.438 43.3438 292.516 43.8281C292.562 44.0312 292.656 44.3125 292.812 44.6719C292.984 45.0312 293.156 45.2812 293.344 45.3906ZM286.844 69.4688C287.062 69.7344 287.969 69.9062 289.547 69.9531C291.141 70 292.156 69.9688 292.578 69.875C292.766 69.8281 292.906 69.75 293 69.6406C293.188 69.4531 293.484 68.9531 293.875 68.1562C294.266 67.3594 294.625 66.625 294.938 65.9688C295.172 65.4531 295.703 65.1875 296.5 65.1719L299.062 65.1875C299.391 65.2344 299.641 65.375 299.844 65.6094C300.172 66.0156 300.516 66.7656 300.859 67.8594C301.219 68.9375 301.578 69.5938 301.953 69.8281C302.062 69.9062 302.188 69.9531 302.328 69.9688C302.672 70.0156 303.516 70 304.875 69.9219C306.234 69.8438 307.375 69.7188 308.297 69.5625C309.375 69.375 309.828 69 309.562 67.75C309.359 66.8906 308.969 65.4375 308.359 63.375C307.75 61.3125 307.078 59.1562 306.312 56.9219C305.547 54.6719 304.766 52.5938 303.969 50.6875C303.172 48.7812 302.484 47.5469 301.906 46.9844C301.5 46.6094 300.781 46.375 299.766 46.2812C298.75 46.1719 297.688 46.1719 296.578 46.2656C295.469 46.3594 294.469 46.5312 293.547 46.7812C292.641 47.0156 292.094 47.2969 291.906 47.5938C291.438 48.375 290.891 49.7188 290.25 51.6406C289.625 53.5625 289.031 55.6094 288.469 57.8125C287.906 60 287.438 62.1094 287.062 64.1406C286.688 66.1719 286.516 67.6875 286.531 68.7031C286.547 69 286.641 69.2656 286.844 69.4688ZM296.969 55.6875C297.375 55.25 297.922 55.6094 298.609 56.7656C299.297 57.9062 299.609 58.6406 299.547 58.9688C299.438 59.5 298.797 59.7969 297.594 59.8438C296.406 59.8906 295.734 59.6719 295.578 59.2188C295.484 58.9531 295.609 58.3906 295.938 57.5312C296.281 56.6719 296.625 56.0469 296.969 55.6875ZM332.141 69.2188C332.25 68.9219 332.359 67.9062 332.469 66.1406C332.578 64.375 332.641 62.3281 332.672 60.0156C332.719 57.7031 332.719 55.3594 332.672 52.9688C332.641 50.5781 332.547 48.625 332.391 47.0938C332.344 46.7031 331.844 46.4219 330.891 46.2344C329.953 46.0469 328.922 45.9688 327.797 46.0156C326.688 46.0469 325.656 46.1875 324.719 46.4531C323.781 46.7188 323.297 47.0938 323.281 47.5938C323.203 48.4062 323.312 50.2188 323.375 52.4531C322.891 51.7344 322.094 50.6719 321.016 49.2812C319.938 47.8906 319.047 47.0312 318.328 46.7031C317.844 46.5 317.141 46.3438 316.219 46.2344C315.312 46.125 314.406 46.0938 313.5 46.125C312.609 46.1406 311.812 46.2344 311.109 46.4062C310.422 46.5625 310.062 46.7969 310.016 47.0938C309.781 48.5938 309.625 50.5312 309.562 52.9062C309.5 55.2812 309.5 57.625 309.547 59.9375C309.609 62.25 309.719 64.2969 309.875 66.0781C310.047 67.8594 310.234 68.9062 310.469 69.2188C310.672 69.6406 311.703 69.8906 313.578 69.9688C315.469 70.0469 316.797 69.9219 317.562 69.5625C317.828 69.4375 318.031 68.7188 318.203 67.3906C318.375 66.0625 318.531 64.4688 318.688 62.6094C318.844 62.8281 319.219 63.2812 319.797 63.9844C320.375 64.6875 321.031 65.4219 321.734 66.2188C322.438 67 323.141 67.7344 323.812 68.4062C324.484 69.0781 325 69.4844 325.359 69.6406C325.609 69.75 326.078 69.8438 326.766 69.9062C327.469 69.9688 328.188 69.9844 328.938 69.9688C329.703 69.9531 330.391 69.875 331.016 69.7656C331.641 69.6562 332.016 69.4688 332.141 69.2188ZM347.844 53.9062C348.062 53.9375 348.156 54.0938 348.141 54.3906C348.125 54.6875 348.344 54.8594 348.797 54.9219C349.125 54.9688 349.656 54.9688 350.391 54.9219C351.125 54.875 351.875 54.7656 352.625 54.6094C353.391 54.4375 354.047 54.2188 354.594 53.9531C355.141 53.6719 355.406 53.3281 355.359 52.9219C355.312 50.25 354.375 48.4062 352.531 47.3906C350.703 46.375 348.656 45.9062 346.406 46.0156C343 46.1875 340.172 47.2969 337.938 49.3281C335.703 51.3594 334.391 54.1875 333.984 57.8125C333.625 61.1406 334.516 63.9219 336.688 66.1875C338.859 68.4531 341.547 69.7031 344.75 69.9531C346.562 70.0781 348.406 69.9219 350.281 69.4688C350.375 69.625 350.469 69.7031 350.562 69.7188C351.203 69.9062 352.266 69.9844 353.766 69.9375C355.281 69.8906 356.109 69.7656 356.281 69.5469C356.453 69.3906 356.594 68.8594 356.672 67.9688C356.766 67.0781 356.812 66.0469 356.828 64.875C356.844 63.7031 356.812 62.5312 356.75 61.3281C356.703 60.125 356.625 59.125 356.516 58.3438C356.453 57.9219 355.984 57.6562 355.109 57.5312C354.25 57.3906 353.312 57.375 352.297 57.4688C351.297 57.5625 350.391 57.75 349.578 58.0312C348.766 58.3125 348.375 58.6562 348.422 59.0469C348.344 59.6406 348.25 60.2344 348.141 60.8281C348.031 61.4062 347.531 61.7031 346.625 61.6875C345.375 61.625 344.422 61.2656 343.75 60.625C343.078 59.9688 342.703 59.2344 342.594 58.4062C342.484 57.5781 342.672 56.75 343.125 55.9531C343.578 55.1562 344.312 54.5625 345.328 54.2031C346.062 53.9531 346.891 53.8594 347.844 53.9062Z" fill="#FEBD11"/></svg>